<!DOCTYPE svg PUBLIC "-//W3C//DTD SVG 20010904//EN" "http://www.w3.org/TR/2001/REC-SVG-20010904/DTD/svg10.dtd">
<svg version="1.0" xmlns="http://www.w3.org/2000/svg" width="1200px" height="233px" viewBox="0 0 12000 2330" preserveAspectRatio="xMidYMid meet">
<g id="layer101" fill="#023b60" stroke="none">
 <path d="M9170 1105 l0 -1105 1210 0 1210 0 0 1105 0 1105 -1210 0 -1210 0 0 -1105z"/>
 <path d="M2705 2089 c-286 -42 -470 -210 -526 -482 -16 -81 -19 -139 -19 -483 0 -375 1 -392 20 -417 11 -13 31 -28 45 -31 33 -8 83 18 90 47 3 12 6 209 8 437 4 468 4 471 81 583 51 75 139 138 234 167 83 26 238 28 325 5 130 -34 240 -118 293 -222 l29 -58 5 -457 c5 -457 5 -458 27 -480 31 -31 89 -30 114 1 18 22 19 53 19 681 l0 659 -26 20 c-35 27 -67 26 -101 -3 -25 -21 -28 -32 -31 -97 l-4 -74 -41 39 c-95 91 -212 146 -352 166 -80 11 -107 11 -190 -1z"/>
 <path d="M6615 2084 c-234 -49 -410 -179 -509 -377 -46 -92 -66 -169 -73 -284 -22 -336 167 -621 483 -729 71 -24 94 -27 224 -28 126 -1 155 2 220 22 198 63 337 178 425 354 75 150 80 188 80 616 l0 374 -28 24 c-34 29 -66 31 -101 3 -25 -20 -26 -24 -26 -130 l0 -110 -78 78 c-90 91 -201 153 -318 178 -63 13 -250 19 -299 9z m256 -154 c30 -5 91 -28 135 -50 135 -66 233 -188 279 -345 21 -73 24 -218 6 -295 -101 -426 -628 -576 -936 -266 -110 111 -165 245 -165 406 0 262 163 477 411 544 64 17 194 20 270 6z"/>
 <path d="M609 2051 l-29 -29 0 -945 c0 -940 0 -944 21 -971 26 -33 88 -37 119 -6 19 19 20 33 20 401 l0 381 26 -32 c42 -49 149 -120 232 -153 67 -26 93 -31 199 -35 144 -5 234 11 339 62 175 84 284 229 325 432 11 52 14 166 14 472 l0 404 -28 24 c-34 29 -66 31 -100 4 l-25 -20 -4 -418 c-4 -355 -7 -426 -22 -476 -60 -209 -229 -326 -471 -326 -206 0 -379 97 -451 253 l-29 62 -3 452 -3 452 -26 21 c-36 28 -69 25 -104 -9z"/>
 <path d="M3832 2070 c-12 -5 -27 -21 -32 -35 -11 -28 -14 -1273 -4 -1312 8 -28 65 -56 99 -47 39 10 55 41 55 108 l0 59 53 -51 c153 -144 393 -175 588 -76 58 29 146 109 179 163 14 22 27 40 30 40 3 0 25 -28 50 -62 51 -69 138 -133 227 -167 81 -32 246 -39 329 -15 182 52 310 187 370 390 16 53 18 115 21 510 4 505 6 489 -69 501 -30 5 -41 2 -62 -19 l-26 -26 0 -418 c0 -462 -4 -496 -62 -605 -64 -121 -175 -188 -312 -188 -168 0 -299 86 -361 237 -18 45 -20 82 -25 515 -6 518 -2 493 -72 505 -30 4 -41 1 -62 -20 l-26 -26 0 -413 c0 -320 -4 -428 -15 -481 -29 -140 -119 -255 -233 -297 -83 -32 -212 -25 -299 14 -76 35 -153 112 -191 193 l-27 58 -5 468 -5 469 -24 19 c-25 20 -53 23 -89 9z"/>
 <path d="M7756 2057 l-26 -26 0 -650 c0 -357 3 -657 6 -666 4 -8 20 -23 36 -31 24 -12 36 -13 64 -4 43 15 54 40 54 127 l0 65 60 -55 c67 -63 173 -119 270 -143 97 -25 290 -15 388 19 195 68 331 212 389 412 15 52 18 119 21 492 l3 433 -26 26 c-22 22 -33 25 -63 21 -70 -12 -66 9 -72 -470 -7 -487 -7 -487 -83 -599 -49 -71 -132 -134 -217 -162 -79 -27 -248 -33 -328 -12 -146 37 -257 121 -310 233 l-27 58 -5 457 c-6 507 -2 483 -72 495 -30 4 -41 1 -62 -20z"/>
 </g>
<g id="layer102" fill="#feffff" stroke="none">
 <path d="M9397 2036 c-19 -18 -37 -48 -41 -66 -3 -18 -6 -424 -6 -902 0 -941 -2 -906 55 -958 22 -21 37 -25 86 -25 53 0 62 3 91 33 l33 32 3 913 c3 852 2 914 -14 945 -23 43 -61 62 -123 62 -44 0 -55 -4 -84 -34z"/>
 <path d="M9898 2055 c-61 -34 -58 11 -58 -983 0 -907 0 -909 21 -936 43 -54 53 -56 371 -56 364 0 455 12 628 85 100 42 220 127 301 213 176 188 259 412 259 698 0 212 -45 385 -140 543 -97 162 -210 266 -384 351 -180 89 -207 93 -616 97 -303 3 -359 1 -382 -12z m676 -230 c362 -63 588 -352 588 -750 0 -144 -19 -238 -72 -350 -87 -187 -228 -312 -425 -376 -63 -20 -94 -23 -317 -27 l-248 -4 0 761 0 761 194 0 c128 0 223 -5 280 -15z"/>
 </g>

</svg>